<svg width="84" height="84" viewBox="0 0 84 84" fill="none" xmlns="http://www.w3.org/2000/svg">
<path d="M63 28C63 31.866 59.866 35 56 35C52.134 35 49 31.866 49 28C49 24.134 52.134 21 56 21C59.866 21 63 24.134 63 28Z" fill="#E0E0E0"/>
<path fill-rule="evenodd" clip-rule="evenodd" d="M41.7992 4.375H42.2008C50.2802 4.37496 56.6118 4.37492 61.552 5.03911C66.6086 5.71895 70.5987 7.13765 73.7305 10.2695C76.8624 13.4013 78.2811 17.3914 78.9609 22.448C79.6251 27.3882 79.625 33.7198 79.625 41.7992V42.1082C79.625 48.7889 79.625 54.258 79.2622 58.7109C78.8976 63.1857 78.1504 66.925 76.4781 70.0305C75.7405 71.4003 74.8341 72.627 73.7305 73.7305C70.5987 76.8624 66.6086 78.2811 61.552 78.9609C56.6118 79.6251 50.2802 79.625 42.2008 79.625H41.7992C33.7198 79.625 27.3882 79.6251 22.448 78.9609C17.3914 78.2811 13.4013 76.8624 10.2695 73.7305C7.493 70.954 6.0592 67.4983 5.29673 63.2115C4.54772 59.0004 4.41071 53.7611 4.38224 47.2552C4.375 45.6003 4.375 43.85 4.375 42.0035V41.7992C4.37496 33.7198 4.37492 27.3882 5.03911 22.448C5.71895 17.3914 7.13765 13.4013 10.2695 10.2695C13.4013 7.13765 17.3914 5.71895 22.448 5.03911C27.3882 4.37492 33.7198 4.37496 41.7992 4.375ZM23.1475 10.2423C18.6731 10.8439 15.9756 11.988 13.9818 13.9818C11.988 15.9756 10.8439 18.6731 10.2423 23.1475C9.63058 27.6974 9.625 33.6762 9.625 42C9.625 43.0168 9.625 44.0001 9.6262 44.9522L13.1302 41.8863C16.3196 39.0955 21.1266 39.2556 24.1233 42.2523L39.1374 57.2664C41.5427 59.6717 45.329 59.9996 48.112 58.0437L49.1557 57.3103C53.1606 54.4957 58.5789 54.8218 62.2173 58.0964L72.1238 67.0122C73.121 64.918 73.7132 62.1663 74.0295 58.2845C74.373 54.0689 74.375 48.8106 74.375 42C74.375 33.6762 74.3694 27.6974 73.7577 23.1475C73.1561 18.6731 72.012 15.9756 70.0182 13.9818C68.0244 11.988 65.3269 10.8439 60.8525 10.2423C56.3026 9.63058 50.3238 9.625 42 9.625C33.6762 9.625 27.6974 9.63058 23.1475 10.2423Z" fill="#E0E0E0"/>
</svg>
