<svg width="242" height="73" viewBox="0 0 242 73" fill="none" xmlns="http://www.w3.org/2000/svg">
<path d="M190.04 68.5046H222.79C231.465 68.5046 238.495 61.4543 238.495 52.7551V19.9115C238.495 11.2124 231.465 4.16211 222.79 4.16211H190.04C181.366 4.16211 174.336 11.2124 174.336 19.9115V52.7551C174.336 61.4511 181.369 68.5046 190.04 68.5046Z" fill="url(#paint0_linear_3134_6074)"/>
<path d="M28.2202 30.9737H27.7669C27.537 30.9929 27.3135 31.1177 27.2273 31.2042C26.5473 31.8862 25.6438 32.2608 24.686 32.2608C23.725 32.2608 22.8215 31.8862 22.1447 31.2042C21.4647 30.5222 21.0911 29.6161 21.0911 28.6556C21.0911 27.6919 21.4647 26.7858 22.1447 26.107C22.8247 25.425 23.7282 25.0504 24.686 25.0504C25.647 25.0504 26.4164 25.2938 27.0964 25.9725C27.1826 26.059 27.5083 26.2639 27.7892 26.2383H28.0159C29.194 26.2383 29.7495 24.7815 28.8747 23.9906C27.7669 22.9885 26.2983 22.377 24.686 22.377C21.2604 22.377 18.4796 25.1337 18.4285 28.5563C18.3742 32.0174 21.1997 34.9118 24.6477 34.931C26.4005 34.9406 28.0893 34.3195 29.1301 33.0708C29.8517 32.2031 29.2738 31.1209 28.2202 30.9737Z" fill="#F2C901"/>
<path d="M60.3509 22.0503C56.8167 22.0503 53.9434 24.9319 53.9434 28.4762C53.9434 28.5146 53.9434 28.5531 53.9434 28.5915C53.9434 28.6075 53.9434 28.6235 53.9434 28.6427V36.9288C53.9434 37.5404 54.5021 38.0335 55.1949 38.0335C55.8845 38.0335 56.4464 37.5404 56.4464 36.9288V33.5702C57.5287 34.4091 58.8855 34.9053 60.3541 34.9053C63.8883 34.9053 66.7617 32.0238 66.7617 28.4794C66.7617 24.9351 63.8851 22.0503 60.3509 22.0503ZM60.3509 32.392C58.1959 32.392 56.4432 30.6342 56.4432 28.473C56.4432 26.3118 58.1959 24.5541 60.3509 24.5541C62.5059 24.5541 64.2587 26.3118 64.2587 28.473C64.2587 30.6342 62.5059 32.392 60.3509 32.392Z" fill="#F2C901"/>
<path d="M46.3666 22.0503C42.8323 22.0503 39.959 24.9319 39.959 28.4762C39.959 28.5146 39.959 28.5531 39.959 28.5915C39.959 28.6075 39.959 28.6235 39.959 28.6427V33.8327C39.959 34.4443 40.5177 34.9374 41.2105 34.9374C41.9001 34.9374 42.462 34.4443 42.462 33.8327V33.567C42.628 33.6951 42.8036 33.8167 42.9824 33.932C42.9856 33.9352 42.9888 33.9352 42.992 33.9384C43.0271 33.9608 43.059 33.98 43.0941 34.0024C43.0973 34.0056 43.1005 34.0056 43.1037 34.0088C43.2442 34.0921 43.391 34.1721 43.5411 34.2458C43.5475 34.249 43.5507 34.2522 43.5571 34.2522C43.589 34.2682 43.6209 34.2842 43.6528 34.3002C43.6624 34.3034 43.672 34.3098 43.6816 34.313C43.7135 34.329 43.7454 34.3418 43.7742 34.3546C43.7837 34.3578 43.7965 34.3642 43.8061 34.3674C43.838 34.3802 43.8699 34.3963 43.9019 34.4091C43.9051 34.4123 43.9114 34.4123 43.9146 34.4155C43.9881 34.4475 44.0647 34.4763 44.1413 34.5051C44.1413 34.5051 44.1445 34.5051 44.1445 34.5083C44.1732 34.5179 44.202 34.5307 44.2339 34.5403C44.2499 34.5467 44.2658 34.5531 44.2818 34.5563C44.3073 34.566 44.3361 34.5756 44.3648 34.5852C44.3839 34.5916 44.4031 34.598 44.4191 34.6044C44.4446 34.614 44.4701 34.6204 44.4989 34.63C44.518 34.6364 44.5404 34.6428 44.5595 34.6492C44.5851 34.6556 44.6106 34.6652 44.6362 34.6716C44.6585 34.678 44.684 34.6844 44.7064 34.6908C44.7447 34.7004 44.783 34.71 44.8213 34.7196C44.8501 34.726 44.8788 34.7324 44.9075 34.742C44.9299 34.7485 44.9522 34.7517 44.9746 34.7581C45.0001 34.7645 45.0257 34.7709 45.0544 34.7741C45.0767 34.7773 45.0991 34.7837 45.1214 34.7869C45.147 34.7933 45.1757 34.7965 45.2013 34.8029C45.2236 34.8061 45.2459 34.8093 45.2651 34.8157C45.2938 34.8221 45.3226 34.8253 45.3513 34.8317C45.3705 34.8349 45.3896 34.8381 45.4088 34.8413C45.4503 34.8477 45.4918 34.8541 45.5301 34.8573C45.5397 34.8573 45.5524 34.8605 45.562 34.8605C45.6067 34.8669 45.6546 34.8701 45.6993 34.8765C45.7153 34.8797 45.7344 34.8797 45.7504 34.8829C45.7823 34.8861 45.8174 34.8893 45.8494 34.8925C45.8685 34.8925 45.8877 34.8957 45.9068 34.8957C45.9387 34.8989 45.9707 34.8989 46.0026 34.9021C46.0218 34.9021 46.0409 34.9053 46.0601 34.9053C46.0952 34.9085 46.1303 34.9085 46.1622 34.9085C46.1782 34.9085 46.1942 34.9085 46.2101 34.9085C46.2612 34.9085 46.3123 34.9117 46.3634 34.9117C46.4144 34.9117 46.4655 34.9117 46.5166 34.9085C46.5326 34.9085 46.5485 34.9085 46.5645 34.9085C46.5996 34.9085 46.6347 34.9053 46.6667 34.9053C46.6858 34.9053 46.705 34.9021 46.7241 34.9021C46.7561 34.8989 46.788 34.8989 46.8199 34.8957C46.8391 34.8957 46.8582 34.8925 46.8774 34.8925C46.9093 34.8893 46.9444 34.8861 46.9763 34.8829C46.9923 34.8797 47.0115 34.8797 47.0274 34.8765C47.0721 34.8701 47.12 34.8669 47.1647 34.8605C47.1743 34.8605 47.1871 34.8573 47.1966 34.8573C47.2381 34.8509 47.2796 34.8477 47.318 34.8413C47.3371 34.8381 47.3563 34.8349 47.3754 34.8317C47.4042 34.8285 47.4329 34.8221 47.4616 34.8157C47.484 34.8125 47.5063 34.8093 47.5255 34.8029C47.551 34.7965 47.5797 34.7933 47.6053 34.7869C47.6276 34.7837 47.65 34.7773 47.6723 34.7741C47.6979 34.7677 47.7234 34.7613 47.7522 34.7581C47.7745 34.7517 47.7968 34.7485 47.8192 34.742C47.8479 34.7356 47.8767 34.7292 47.9054 34.7196C47.9437 34.71 47.982 34.7004 48.0203 34.6908C48.0427 34.6844 48.0682 34.678 48.0906 34.6716C48.1161 34.6652 48.1416 34.6556 48.1672 34.6492C48.1863 34.6428 48.2087 34.6364 48.2278 34.63C48.2534 34.6204 48.2789 34.614 48.3077 34.6044C48.3268 34.598 48.346 34.5916 48.3651 34.5852C48.3939 34.5756 48.4194 34.566 48.4481 34.5563C48.4641 34.5499 48.4801 34.5435 48.496 34.5403C48.5248 34.5307 48.5535 34.5211 48.5822 34.5083C48.5854 34.5083 48.5854 34.5083 48.5886 34.5051C48.6652 34.4763 48.7387 34.4475 48.8153 34.4155C48.8185 34.4123 48.8249 34.4123 48.8281 34.4091C48.86 34.3963 48.8919 34.3802 48.9238 34.3674C48.9334 34.3642 48.9462 34.3578 48.9558 34.3546C48.9877 34.3418 49.0196 34.3258 49.0484 34.313C49.0579 34.3098 49.0675 34.3034 49.0771 34.3002C49.109 34.2842 49.1409 34.2682 49.1729 34.2522C49.1792 34.249 49.1824 34.2458 49.1888 34.2426C49.3389 34.1689 49.4825 34.0889 49.623 34.0056C49.6262 34.0024 49.6294 34.0024 49.6326 33.9992C49.6677 33.98 49.6996 33.9576 49.7348 33.9352C49.738 33.932 49.7411 33.932 49.7443 33.9288C49.9231 33.8167 50.0987 33.6951 50.2647 33.5638V33.8295C50.2647 34.4411 50.8234 34.9342 51.5162 34.9342C52.2058 34.9342 52.7677 34.4411 52.7677 33.8295V28.6395C52.7677 28.6235 52.7677 28.6043 52.7677 28.5883C52.7677 28.5499 52.7677 28.5114 52.7677 28.473C52.7741 24.9319 49.9008 22.0503 46.3666 22.0503ZM46.3666 32.392C44.2115 32.392 42.4588 30.6342 42.4588 28.473C42.4588 26.3118 44.2115 24.5541 46.3666 24.5541C48.5216 24.5541 50.2743 26.3118 50.2743 28.473C50.2743 30.6342 48.5216 32.392 46.3666 32.392Z" fill="#F2C901"/>
<path d="M37.4661 32.3056H35.7835C34.2894 32.3056 33.073 31.0857 33.073 29.5873L33.0762 23.8657C33.0762 23.1389 32.492 22.553 31.7672 22.5498C31.0457 22.5498 30.4583 23.1357 30.4583 23.8625L30.4551 29.5841C30.4551 32.5329 32.8463 34.931 35.7867 34.931H37.4692C38.194 34.931 38.7782 34.3419 38.7782 33.6183C38.7782 32.8947 38.1908 32.3056 37.4661 32.3056Z" fill="#F2C901"/>
<path d="M47.4623 68.5174C50.4314 68.5174 52.8387 66.1033 52.8387 63.1256C52.8387 60.148 50.4314 57.7339 47.4623 57.7339C44.4932 57.7339 42.0859 60.148 42.0859 63.1256C42.0859 66.1033 44.4932 68.5174 47.4623 68.5174Z" fill="#666666"/>
<path d="M35.7416 68.5174C38.7107 68.5174 41.118 66.1033 41.118 63.1256C41.118 60.148 38.7107 57.7339 35.7416 57.7339C32.7725 57.7339 30.3652 60.148 30.3652 63.1256C30.3652 66.1033 32.7725 68.5174 35.7416 68.5174Z" fill="#666666"/>
<path d="M23.7592 68.5174C26.7283 68.5174 29.1355 66.1033 29.1355 63.1256C29.1355 60.148 26.7283 57.7339 23.7592 57.7339C20.79 57.7339 18.3828 60.148 18.3828 63.1256C18.3828 66.1033 20.79 68.5174 23.7592 68.5174Z" fill="#666666"/>
<path d="M208.793 52.9538L207.513 52.4576L204.528 46.7296C204.078 45.8651 203.883 44.9591 203.918 44.0754C203.995 42.1799 205.128 40.3773 207.04 39.2471C207.465 38.9974 207.925 38.7797 208.42 38.6036L211.389 37.5438C215.175 36.1926 219.565 37.6366 221.2 40.7712L222.215 42.7242C222.276 43.1629 222.308 43.6143 222.308 44.069C222.308 49.4191 217.982 53.7575 212.647 53.7575C211.28 53.7575 209.974 53.4693 208.793 52.9538Z" fill="#00A48A"/>
<path d="M227.49 55.0255L227.487 55.2592C226.657 60.1643 222.174 61.4866 219.729 61.4866L216.52 61.4834H216.265C213.586 61.3169 211.083 59.2422 209.943 57.0554L208.711 54.6893C210.017 55.2112 211.396 55.4737 212.813 55.4737C215.786 55.4737 218.579 54.3115 220.683 52.2047C222.436 50.447 223.531 48.2057 223.847 45.7788L226.618 51.0969C227.177 52.1695 227.49 53.7192 227.49 55.0255Z" fill="white"/>
<path d="M208.043 15.9352C207.618 15.6758 207.481 15.1187 207.742 14.6897L210.067 10.8636C210.325 10.4378 210.881 10.3001 211.309 10.5626C211.736 10.8252 211.87 11.3791 211.609 11.8081L209.284 15.6342C209.023 16.06 208.47 16.1945 208.043 15.9352Z" fill="#F2C901"/>
<path d="M201.671 15.7943C201.275 16.0985 200.707 16.0216 200.406 15.6214L197.699 12.0579C197.396 11.6608 197.472 11.0909 197.872 10.79C198.267 10.4858 198.836 10.5626 199.136 10.9629L201.843 14.5264C202.146 14.9202 202.07 15.4901 201.671 15.7943Z" fill="#F2C901"/>
<path d="M210.719 17.8691C210.527 17.408 210.741 16.8765 211.201 16.6844L212.864 16.1177C213.324 15.9256 213.854 16.1401 214.045 16.6012C214.237 17.0622 214.023 17.5937 213.563 17.7858L211.9 18.3525C211.44 18.5478 210.913 18.3301 210.719 17.8691Z" fill="#F2C901"/>
<path d="M198.884 17.9108C199.076 17.4498 198.862 16.9183 198.402 16.7262L196.656 16.0762C196.196 15.8841 195.666 16.0986 195.474 16.5597C195.283 17.0207 195.497 17.5522 195.957 17.7443L197.703 18.3943C198.163 18.5896 198.693 18.3719 198.884 17.9108Z" fill="#F2C901"/>
<path d="M204.984 14.4493C205.482 14.4589 205.894 14.0331 205.907 13.4984V11.6093C205.916 11.0747 205.524 10.6328 205.022 10.6232C204.524 10.6136 204.113 11.0394 204.1 11.5741V13.4632C204.09 13.9979 204.486 14.4397 204.984 14.4493Z" fill="#F2C901"/>
<path d="M201.035 45.6476L202.222 46.1086C202.044 46.2815 201.855 46.4448 201.661 46.6017C200.882 47.2325 199.988 47.7543 198.998 48.129C198.5 48.3179 197.995 48.4619 197.488 48.5644L197.453 48.5516C196.425 48.1514 195.914 46.9923 196.31 45.9614C196.616 45.1673 197.373 44.6807 198.174 44.6807C198.414 44.6807 198.656 44.7255 198.893 44.8151L201.035 45.6476Z" fill="#00A48A"/>
<path d="M197.812 27.0483L197.049 28.217C197.154 27.7623 197.413 27.3429 197.812 27.0483Z" fill="#00A48A"/>
<path d="M196.95 25.8572C197.547 25.4186 198.256 25.1848 198.996 25.1848C199.006 25.1848 199.019 25.1848 199.028 25.1848L200.605 22.7707C201.209 21.8454 200.947 20.6031 200.021 19.998C199.099 19.3929 197.86 19.6554 197.256 20.5839L190.609 30.7623C190.399 30.8904 190.191 31.0248 189.99 31.1689L190.028 26.4239C190.038 25.3193 189.15 24.4132 188.049 24.4036C186.944 24.394 186.044 25.2841 186.034 26.3887L185.935 38.5842C185.913 39.0452 185.923 39.5095 185.967 39.9738C185.862 42.4711 185.833 45.3495 185.833 46.2012H185.83V49.5694C185.83 52.086 187.864 54.1287 190.376 54.1287H193.799C193.984 54.1415 194.169 54.1479 194.358 54.1479C196.707 54.1479 198.974 53.1714 200.593 51.4488L198.917 50.7989C197.681 51.8843 196.072 52.5118 194.358 52.5118C194.207 52.5118 194.057 52.5054 193.907 52.4958L193.853 52.4926H190.648C188.889 52.4926 187.461 51.0614 187.461 49.2973V47.4819H187.465L187.461 46.2044C187.461 45.6505 187.471 45.183 187.513 44.754C187.522 44.6515 187.535 44.5491 187.548 44.4498C187.615 44.5523 187.685 44.6547 187.755 44.754C189.537 47.2257 192.385 48.6985 195.389 48.7626C194.706 47.8373 194.495 46.5886 194.939 45.4359C195.194 44.77 195.644 44.2065 196.235 43.8095C196.809 43.422 197.48 43.2171 198.17 43.2171C198.23 43.2171 198.288 43.2203 198.345 43.2235C198.712 43.2427 199.073 43.3196 199.418 43.4541L199.683 43.5565L197.732 40.8734L194.811 36.8552C193.681 35.3088 194.016 33.1316 195.558 31.9982C195.912 31.7356 196.308 31.5499 196.723 31.4379L196.2 30.7271L196.196 30.7239V30.7207C195.076 29.1678 195.411 26.9906 196.95 25.8572Z" fill="white"/>
<path d="M203.808 25.0215C204.108 25.0215 204.408 25.0887 204.679 25.22L202.492 28.6074L202.199 28.2072C201.547 27.3139 201.739 26.0621 202.63 25.4089C202.984 25.1464 203.396 25.0215 203.808 25.0215Z" fill="#00A48A"/>
<path d="M200.644 25.6043C200.398 25.473 200.139 25.3673 199.871 25.3001L203.469 19.7226C204.073 18.7941 205.308 18.5348 206.234 19.1367C207.16 19.7419 207.418 20.9809 206.818 21.9094L205.481 23.9842C204.973 23.7056 204.401 23.5519 203.811 23.5519C203.07 23.5519 202.365 23.7857 201.764 24.2243C201.266 24.5829 200.886 25.06 200.644 25.6043Z" fill="white"/>
<path d="M205.419 25.8412L207.88 29.187L205.562 32.7826L203.027 29.3375L205.345 25.7451C205.368 25.7771 205.393 25.8092 205.419 25.8412Z" fill="#00A48A"/>
<path d="M210.083 25.5117C210.124 25.5117 210.169 25.5149 210.21 25.5149C210.162 25.627 210.108 25.7358 210.038 25.8415L208.336 28.4829C207.857 27.6153 208.084 26.5043 208.905 25.9023C209.259 25.6398 209.671 25.5117 210.083 25.5117Z" fill="#00A48A"/>
<path d="M210.083 24.0419C209.342 24.0419 208.633 24.2756 208.036 24.7142C207.666 24.9896 207.363 25.3226 207.136 25.694L206.599 24.9672C206.469 24.7879 206.322 24.6246 206.162 24.4773L206.692 23.6545C207.295 22.7291 208.531 22.4666 209.457 23.0685C209.827 23.3119 210.092 23.6577 210.236 24.0419C210.185 24.0419 210.134 24.0419 210.083 24.0419Z" fill="white"/>
<path d="M208.366 29.8498L210.901 33.2949L207.045 39.2534L203.922 44.0816L203.673 44.4658C203.574 44.6163 203.459 44.7508 203.332 44.866C203.204 45.0357 203.073 45.2022 202.933 45.3655C202.913 45.3879 202.894 45.4103 202.875 45.4327L202.189 44.4914L196.001 35.9812C195.35 35.0879 195.542 33.836 196.432 33.1828C196.787 32.9203 197.202 32.7954 197.61 32.7954C198.227 32.7954 198.833 33.0804 199.223 33.6151L203.881 40.0186C204.005 39.7496 204.139 39.4871 204.289 39.2309L197.39 29.8498C197.304 29.7313 197.234 29.6097 197.176 29.4848L198.996 26.6641H198.999C199.615 26.6641 200.222 26.949 200.612 27.4837L202.004 29.3759L200.947 31.012C201.183 31.1689 201.41 31.3354 201.63 31.5115L202.54 30.1027L205.075 33.5478L204.264 34.8061C204.395 35.0783 204.516 35.3568 204.625 35.6418L205.557 34.201L207.029 36.1989C207.255 36.0356 207.495 35.8787 207.737 35.7346L206.049 33.4422L208.366 29.8498Z" fill="#00A48A"/>
<path d="M211.798 31.9057L211.342 32.6101L208.877 29.2482C209.531 28.7231 210.473 28.6495 211.214 29.133C212.14 29.7349 212.402 30.9772 211.798 31.9057Z" fill="#00A48A"/>
<path d="M222.31 44.0723C222.31 49.4224 217.984 53.7608 212.649 53.7608C211.277 53.7608 209.971 53.4726 208.79 52.9572L207.509 52.4609L201.779 50.2357L200.217 49.6305L197.485 48.5708L197.449 48.558C196.421 48.1577 195.911 46.9987 196.306 45.9677C196.613 45.1737 197.37 44.687 198.171 44.687C198.41 44.687 198.653 44.7319 198.889 44.8215L201.032 45.654L202.219 46.115L203.301 46.5344C203.241 46.2975 203.187 46.0542 203.142 45.8109L202.867 45.4362L202.181 44.4949L195.994 35.9847C195.342 35.0914 195.534 33.8395 196.425 33.1863C196.779 32.9238 197.194 32.7989 197.603 32.7989C198.219 32.7989 198.825 33.0839 199.215 33.6186L203.873 40.0221C203.997 39.7531 204.132 39.4906 204.282 39.2344L197.382 29.8533C197.296 29.7348 197.226 29.6132 197.168 29.4883C196.99 29.0849 196.951 28.6398 197.044 28.2268C197.146 27.7754 197.405 27.3559 197.807 27.0582C197.81 27.0582 197.81 27.055 197.813 27.055C198.168 26.7956 198.58 26.6676 198.988 26.6676H198.991C199.608 26.6676 200.214 26.9525 200.604 27.4872L201.996 29.3794L202.532 30.1094L205.067 33.5545L205.549 34.2109L207.021 36.2088C207.248 36.0455 207.487 35.8886 207.73 35.7445L206.041 33.4521L205.559 32.7957L203.024 29.3506L202.487 28.6206L202.194 28.2204C201.542 27.3271 201.734 26.0752 202.625 25.4221C202.982 25.1595 203.394 25.0347 203.803 25.0347C204.103 25.0347 204.403 25.1019 204.674 25.2332C204.923 25.3548 205.153 25.5309 205.342 25.7583C205.367 25.7903 205.393 25.8223 205.415 25.8543L207.876 29.2001L208.362 29.8629L210.897 33.308L211.73 34.4414C212.03 34.4126 212.33 34.3966 212.637 34.3966L211.337 32.6228L208.873 29.261L208.47 28.7135C208.419 28.643 208.371 28.5694 208.333 28.4958C207.854 27.6281 208.081 26.5171 208.901 25.9152C209.256 25.6526 209.671 25.5277 210.079 25.5277C210.121 25.5277 210.166 25.5309 210.207 25.5309C210.775 25.5662 211.328 25.8479 211.692 26.3442L220.535 38.402C220.641 38.5461 220.727 38.703 220.787 38.863C221.522 40.0125 222.02 41.3252 222.215 42.7372C222.278 43.1662 222.31 43.6144 222.31 44.0723Z" fill="white"/>
<path d="M195.4 45.769C194.637 45.7434 193.871 45.5833 193.166 45.2983C193.016 45.2375 192.859 45.1639 192.709 45.0934C190.379 43.96 188.872 41.6099 188.773 38.9525C188.706 37.1371 189.306 35.4722 190.423 34.2139C188.69 37.073 188.881 40.6686 191.106 43.2492C191.901 44.1681 192.923 44.8981 194.063 45.3656C194.395 45.4969 194.736 45.6121 195.075 45.6986C195.183 45.7178 195.289 45.7466 195.4 45.769Z" fill="#00A48A"/>
<path d="M195.075 45.6888C194.736 45.6023 194.398 45.4935 194.063 45.3558C192.926 44.8916 191.901 44.1584 191.106 43.2395C188.881 40.6588 188.69 37.0633 190.423 34.2041C189.303 35.4688 188.706 37.1369 188.773 38.9427C188.865 41.6034 190.379 43.9502 192.709 45.0837C192.862 45.1605 193.009 45.2309 193.166 45.2886C193.868 45.5735 194.634 45.7336 195.401 45.7592C195.289 45.7464 195.183 45.7176 195.075 45.6888Z" fill="#00A48A"/>
<path d="M190.149 57.1157C190.574 57.1157 190.88 57.2278 191.062 57.4519C191.248 57.676 191.34 58.009 191.34 58.4477V58.9247C191.34 59.3634 191.248 59.6963 191.062 59.9205C190.877 60.1446 190.574 60.2566 190.149 60.2566H187.854V61.4957C187.854 61.5918 187.812 61.6366 187.733 61.6366H187.136C187.049 61.6366 187.008 61.5886 187.008 61.4957V57.311C187.008 57.183 187.062 57.1157 187.174 57.1157H190.149ZM187.854 59.4018H189.977C190.165 59.4018 190.299 59.3537 190.376 59.2609C190.453 59.1648 190.491 59.0208 190.491 58.8287V58.5821C190.491 58.3868 190.453 58.2427 190.376 58.1499C190.299 58.0538 190.165 58.009 189.977 58.009H187.927C187.879 58.009 187.854 58.0346 187.854 58.0859V59.4018Z" fill="#F2C901"/>
<path d="M193.795 57.1162C193.935 57.1162 194.053 57.1482 194.149 57.2155C194.245 57.2827 194.34 57.414 194.433 57.6061L196.269 61.4866C196.288 61.5282 196.291 61.5666 196.282 61.5923C196.272 61.6211 196.246 61.6339 196.202 61.6339H195.499C195.436 61.6339 195.394 61.6051 195.372 61.5506L194.979 60.7182H192.374L191.991 61.5506C191.965 61.6083 191.924 61.6339 191.863 61.6339H191.141C191.094 61.6339 191.065 61.6211 191.055 61.5923C191.046 61.5634 191.052 61.5282 191.068 61.4866L192.885 57.6061C192.977 57.4108 193.067 57.2827 193.156 57.2155C193.245 57.1482 193.348 57.1162 193.466 57.1162H193.795ZM192.722 59.969H194.628L193.747 58.0767C193.731 58.0479 193.712 58.0319 193.686 58.0319H193.654C193.629 58.0319 193.609 58.0479 193.593 58.0767L192.722 59.969Z" fill="#F2C901"/>
<path d="M199.884 57.116C200.308 57.116 200.615 57.2281 200.797 57.4522C200.982 57.6763 201.075 58.0093 201.075 58.4479V58.8161C201.075 59.1875 201.011 59.4789 200.88 59.6934C200.749 59.9079 200.538 60.0456 200.248 60.1064L201.196 61.4768C201.215 61.4992 201.221 61.5312 201.212 61.5728C201.205 61.6145 201.174 61.6369 201.122 61.6369H200.407C200.359 61.6369 200.327 61.6305 200.308 61.6177C200.289 61.6049 200.27 61.5824 200.254 61.5536L199.379 60.2089H197.588V61.4928C197.588 61.5888 197.547 61.6337 197.467 61.6337H196.87C196.784 61.6337 196.742 61.5856 196.742 61.4928V57.3081C196.742 57.18 196.796 57.1128 196.908 57.1128H199.884V57.116ZM197.588 59.4213H199.711C199.9 59.4213 200.034 59.3732 200.11 59.2804C200.187 59.1843 200.225 59.0402 200.225 58.8481V58.576C200.225 58.3807 200.187 58.2366 200.11 58.1438C200.034 58.0477 199.9 58.0029 199.711 58.0029H197.662C197.614 58.0029 197.588 58.0285 197.588 58.0797V59.4213Z" fill="#F2C901"/>
<path d="M205.909 57.1162C205.995 57.1162 206.036 57.1642 206.036 57.2571V57.891C206.036 57.9903 205.995 58.0383 205.909 58.0383H204.169V61.493C204.169 61.5891 204.127 61.6339 204.047 61.6339H203.444C203.364 61.6339 203.323 61.5859 203.323 61.493V58.0383H201.583C201.497 58.0383 201.455 57.9903 201.455 57.891V57.2571C201.455 57.161 201.497 57.1162 201.583 57.1162H205.909Z" fill="#F2C901"/>
<path d="M160.247 5.54883H122.782C117.594 5.54883 113.389 9.76554 113.389 14.9684V22.1755C113.389 27.2919 117.524 31.4382 122.625 31.4382H147.122C149.951 31.4382 152.243 33.7371 152.243 36.5738V37.3615C152.243 39.7884 150.28 41.7575 147.86 41.7575H112.013C107.591 41.7575 104.003 38.1619 104.003 33.7243V11.3344C104.003 8.13905 101.42 5.54883 98.2339 5.54883H97.6624C94.1729 5.54883 91.3443 8.38558 91.3443 11.8851V37.989C91.3443 40.0701 89.6618 41.7575 87.5866 41.7575C85.5656 41.7575 83.9278 40.115 83.9278 38.0883V34.1821C83.9278 30.6314 81.0577 27.753 77.5171 27.753H77.3894C74.0116 27.753 71.2723 30.5001 71.2723 33.8876V35.3636C71.2723 38.8951 68.4181 41.7575 64.8967 41.7575H18.674C16.618 41.7575 14.9483 40.0862 14.9483 38.021V36.8716C14.9483 31.7456 10.8042 27.5929 5.69607 27.5929H3.79327C2.75567 27.5897 1.91602 28.4318 1.91602 29.4723V39.8428C1.91602 47.9817 8.49599 54.5805 16.6116 54.5805H69.2801C74.516 54.5805 77.6065 50.2613 77.6065 47.3637H77.6767C77.6767 50.2613 81.2843 54.5805 86.0828 54.5805H88.7008C93.7196 54.5805 97.2091 50.4182 97.2091 47.4438C97.2091 50.4182 100.919 54.5805 105.5 54.5805H149.495C158.239 54.5805 165.327 47.4726 165.327 38.703V34.6208C165.327 26.2546 158.562 19.4701 150.219 19.4701H124.956V18.5351C124.956 17.5842 125.726 16.8126 126.674 16.8126H152.601C157.581 16.8126 161.604 12.7336 161.55 7.73883L161.54 6.83593C161.534 6.12194 160.959 5.54883 160.247 5.54883Z" fill="#666666"/>
<defs>
<linearGradient id="paint0_linear_3134_6074" x1="225.453" y1="3.2645" x2="187.215" y2="69.3061" gradientUnits="userSpaceOnUse">
<stop stop-color="#00A48A"/>
<stop offset="1" stop-color="#007B68"/>
</linearGradient>
</defs>
</svg>
