<svg width="240" height="72" viewBox="0 0 240 72" fill="none" xmlns="http://www.w3.org/2000/svg">
<path d="M220.939 4.26318H188.454C179.842 4.26318 172.876 11.2106 172.876 19.8V52.2C172.876 60.7895 179.842 67.7369 188.454 67.7369H220.939C229.551 67.7369 236.517 60.7895 236.517 52.2V19.8C236.517 11.2106 229.551 4.26318 220.939 4.26318ZM207.736 22.9263C208.116 23.179 208.369 23.4948 208.496 23.8737C208.433 23.8737 208.401 23.8737 208.338 23.8737C207.609 23.8737 206.913 24.0948 206.311 24.5369C205.931 24.8211 205.646 25.1369 205.425 25.5158L204.887 24.7895C204.76 24.6 204.602 24.4421 204.443 24.3158L204.982 23.4948C205.583 22.579 206.818 22.3263 207.736 22.9263ZM204.538 19.0421C205.456 19.6421 205.71 20.8737 205.108 21.7895L203.778 23.8421C203.272 23.5579 202.702 23.4316 202.132 23.4316C201.404 23.4316 200.707 23.6527 200.106 24.0948C199.599 24.4421 199.219 24.9158 198.997 25.4527C198.744 25.3263 198.491 25.2316 198.237 25.1684L201.815 19.6737C202.385 18.6948 203.62 18.4421 204.538 19.0421ZM192.76 53.5579C192.57 53.5579 192.38 53.5579 192.19 53.5263H188.802C186.301 53.5263 184.306 51.5053 184.306 49.0421V45.7263C184.306 44.8737 184.338 42.0632 184.433 39.6C184.401 39.1579 184.369 38.6842 184.401 38.2421L184.496 26.2106C184.496 25.1369 185.383 24.2527 186.491 24.2527C187.599 24.2527 188.454 25.1684 188.454 26.2421L188.422 30.9158C188.612 30.7895 188.834 30.6316 189.024 30.5053L195.609 20.4632C196.211 19.5474 197.446 19.2948 198.364 19.8948C199.282 20.4948 199.536 21.7263 198.934 22.6421L197.383 25.0106H197.351C196.623 25.0106 195.926 25.2316 195.325 25.6737C193.805 26.779 193.456 28.9263 194.565 30.4737L195.071 31.1684C194.66 31.2632 194.28 31.4527 193.9 31.7369C192.38 32.8421 192.032 34.9895 193.171 36.5369L196.084 40.5158L198.016 43.1684L197.763 43.0737C197.414 42.9474 197.066 42.8527 196.686 42.8527C196.623 42.8527 196.559 42.8527 196.528 42.8527C195.831 42.8527 195.166 43.0421 194.596 43.4527C194.026 43.8316 193.551 44.4 193.298 45.0632C192.855 46.2 193.077 47.4316 193.741 48.3474C190.765 48.2842 187.947 46.8316 186.174 44.4C186.111 44.3053 186.047 44.2105 185.952 44.1158C185.952 44.2105 185.921 44.3053 185.921 44.4C185.889 44.8106 185.858 45.2842 185.858 45.8211V47.0842V48.8842C185.858 50.6211 187.282 52.0421 189.024 52.0421H192.19H192.253C192.412 52.0421 192.538 52.0737 192.697 52.0737C194.406 52.0737 195.989 51.4421 197.224 50.3684L198.871 51C197.319 52.6106 195.071 53.5579 192.76 53.5579ZM200.106 49.7053L198.554 49.1053L195.831 48.0632H195.799C194.786 47.6842 194.28 46.5158 194.66 45.5053C194.976 44.7158 195.704 44.2421 196.496 44.2421C196.749 44.2421 196.971 44.2737 197.193 44.3684L199.314 45.1895L200.485 45.6316L201.562 46.0421C201.499 45.8211 201.435 45.5684 201.404 45.3158L201.119 44.9369L200.422 44.0211L194.28 35.6211C193.646 34.7369 193.836 33.5053 194.691 32.8737C195.04 32.6211 195.451 32.4948 195.863 32.4948C196.464 32.4948 197.066 32.779 197.446 33.3158L202.069 39.6316C202.195 39.379 202.322 39.0948 202.48 38.8421L195.641 29.5895C195.546 29.4632 195.483 29.3369 195.42 29.2421C195.23 28.8316 195.198 28.3895 195.293 28.0106C195.388 27.5684 195.641 27.1579 196.053 26.8421C196.401 26.5895 196.813 26.4632 197.224 26.4632C197.826 26.4632 198.427 26.7474 198.807 27.2842L200.201 29.1474L200.739 29.8737L203.24 33.2842L203.715 33.9474L205.171 35.9053C205.393 35.7474 205.646 35.5895 205.868 35.4632L204.19 33.1895L203.715 32.5263L201.214 29.1158L200.675 28.3895L200.39 28.0106C199.757 27.1263 199.947 25.8948 200.802 25.2632C201.15 25.0106 201.562 24.8842 201.974 24.8842C202.259 24.8842 202.575 24.9474 202.828 25.0737C203.082 25.2 203.303 25.3579 203.493 25.579C203.525 25.6106 203.557 25.6421 203.557 25.6737L205.995 28.9579L206.47 29.6211L208.971 33.0316L209.794 34.1369C210.079 34.1053 210.396 34.1053 210.681 34.1053L209.383 32.3684L206.945 29.0527L206.533 28.5158C206.47 28.4527 206.438 28.3895 206.406 28.2948C205.931 27.4421 206.153 26.3369 206.976 25.7369C207.325 25.4842 207.736 25.3579 208.148 25.3579C208.179 25.3579 208.243 25.3579 208.274 25.3579C208.844 25.3895 209.383 25.6737 209.763 26.1474L218.533 38.0527C218.628 38.179 218.723 38.3369 218.786 38.4948C219.514 39.6316 220.021 40.9263 220.211 42.3158C220.274 42.7263 220.306 43.1684 220.306 43.6421C220.306 48.9158 216.032 53.2106 210.712 53.2106C209.351 53.2106 208.053 52.9263 206.881 52.4211L205.615 51.9158L200.106 49.7053ZM225.594 54.6632C224.77 59.4948 220.338 60.7895 217.9 60.7895H214.733H214.48C211.821 60.6316 209.351 58.579 208.211 56.4316L206.976 54.0948C208.274 54.6 209.636 54.8527 211.029 54.8527C213.974 54.8527 216.76 53.7158 218.85 51.6316C220.591 49.8948 221.668 47.6842 221.984 45.2842L224.739 50.5263C225.309 51.6 225.594 53.1158 225.594 54.4106V54.6632Z" fill="url(#paint0_linear_3944_5981)"/>
<path d="M189.973 43.2948C190.1 43.358 190.227 43.4527 190.353 43.5159C190.923 43.8317 191.556 44.0843 192.221 44.179C192.19 44.179 192.19 44.179 192.158 44.1475C192.19 44.1475 192.19 44.1475 192.221 44.1475C192.126 44.1159 192.031 44.0843 191.968 44.0527C191.683 43.9264 191.398 43.8001 191.145 43.6422C190.227 43.1054 189.435 42.3475 188.865 41.4632C187.979 40.0738 187.662 38.4948 187.884 36.979C188.074 35.8106 188.58 34.6738 189.372 33.6948C189.372 33.6948 189.372 33.6948 189.372 33.7264C189.372 33.7264 189.372 33.6948 189.403 33.6948C188.295 34.6422 187.567 35.9685 187.409 37.5159C187.409 37.6106 187.409 37.7054 187.377 37.7685C187.377 37.8317 187.377 37.8632 187.377 37.9264C187.377 37.958 187.377 37.9896 187.377 38.0211C187.377 38.4001 187.377 38.779 187.44 39.158C187.662 40.8948 188.58 42.3475 189.973 43.2948Z" fill="url(#paint1_linear_3944_5981)"/>
<path d="M27.9895 30.6949H27.5462C27.3246 30.7265 27.103 30.8212 27.008 30.916C26.3431 31.5791 25.4249 31.9581 24.475 31.9581C23.5251 31.9581 22.6386 31.5791 21.942 30.916C21.2771 30.2528 20.8972 29.337 20.8972 28.3897C20.8972 27.4423 21.2771 26.5581 21.942 25.8634C22.6069 25.2002 23.5251 24.8212 24.475 24.8212C25.4249 24.8212 26.1848 25.0739 26.8813 25.737C26.9763 25.8318 27.2929 26.0212 27.5779 25.9897H27.7995C28.971 25.9897 29.5093 24.537 28.6544 23.7791C27.5462 22.8002 26.0898 22.2002 24.5067 22.2002C21.1188 22.2002 18.3642 24.916 18.3009 28.2949C18.2375 31.7055 21.0555 34.5476 24.475 34.5791C26.2164 34.5791 27.8945 33.9791 28.9077 32.7476C29.6043 31.9265 29.0344 30.8528 27.9895 30.6949Z" fill="#F2C901"/>
<path d="M59.8417 21.916C56.3271 21.916 53.4775 24.7581 53.4775 28.2634C53.4775 28.295 53.4775 28.3265 53.4775 28.3897C53.4775 28.4213 53.4775 28.4213 53.4775 28.4529V36.6318C53.4775 37.2318 54.0475 37.7055 54.7124 37.7055C55.4089 37.7055 55.9472 37.2318 55.9472 36.6318V33.316C57.0237 34.1371 58.3535 34.6423 59.81 34.6423C63.3245 34.6423 66.1741 31.8002 66.1741 28.295C66.1741 24.7897 63.3562 21.916 59.8417 21.916ZM59.8417 32.116C57.6886 32.116 55.9789 30.3792 55.9789 28.2634C55.9789 26.1476 57.7203 24.4108 59.8417 24.4108C61.963 24.4108 63.7045 26.1476 63.7045 28.2634C63.7045 30.3792 61.9947 32.116 59.8417 32.116Z" fill="#F2C901"/>
<path d="M45.9735 21.916C42.459 21.916 39.6094 24.7581 39.6094 28.2634C39.6094 28.295 39.6094 28.3265 39.6094 28.3897C39.6094 28.4213 39.6094 28.4213 39.6094 28.4529V33.5686C39.6094 34.1686 40.1793 34.6423 40.8442 34.6423C41.5408 34.6423 42.079 34.1686 42.079 33.5686V33.316C42.2373 33.4423 42.4273 33.5686 42.5856 33.6634C42.6173 33.695 42.649 33.695 42.6806 33.7265C42.8073 33.8213 42.9656 33.8844 43.1239 33.9476C43.1239 33.9476 43.1239 33.9476 43.1556 33.9476C43.1872 33.9792 43.2189 33.9792 43.2505 34.0108H43.2822C43.3139 34.0423 43.3455 34.0423 43.3772 34.0423H43.4088C43.4405 34.0423 43.4722 34.0739 43.5038 34.0739C43.5672 34.1055 43.6621 34.1371 43.7255 34.1686C43.7571 34.1686 43.7888 34.2002 43.8205 34.2002C43.8521 34.2002 43.8521 34.2002 43.8521 34.2318C43.8838 34.2318 43.9154 34.2634 43.9471 34.2634C43.9788 34.2634 43.9788 34.2634 44.0104 34.295C44.0421 34.295 44.0738 34.3265 44.0738 34.3265C44.1054 34.3265 44.1054 34.3265 44.1371 34.3581C44.1687 34.3581 44.2004 34.3897 44.2004 34.3897C44.2321 34.3897 44.2321 34.3897 44.2637 34.4213C44.2954 34.4213 44.3271 34.4529 44.3904 34.4529C44.422 34.4529 44.4537 34.4529 44.4854 34.4844C44.517 34.4844 44.517 34.4844 44.5487 34.516C44.5804 34.516 44.612 34.516 44.612 34.5476C44.6437 34.5476 44.6437 34.5476 44.6753 34.5476C44.707 34.5476 44.7387 34.5476 44.7387 34.5792C44.7703 34.5792 44.7703 34.5792 44.802 34.5792C44.8337 34.5792 44.8653 34.5792 44.897 34.6108C44.9286 34.6108 44.9286 34.6108 44.9603 34.6108C44.992 34.6108 45.0553 34.6108 45.0869 34.6423H45.1186C45.1503 34.6423 45.2136 34.6423 45.2453 34.6739C45.2769 34.6739 45.2769 34.6739 45.3086 34.6739C45.3402 34.6739 45.3719 34.6739 45.4036 34.6739C45.4352 34.6739 45.4352 34.6739 45.4669 34.6739C45.4986 34.6739 45.5302 34.6739 45.5619 34.6739C45.5935 34.6739 45.5935 34.6739 45.6252 34.6739C45.6569 34.6739 45.6885 34.6739 45.7202 34.6739C45.7519 34.6739 45.7519 34.6739 45.7519 34.6739C45.8152 34.6739 45.8468 34.6739 45.9102 34.6739C45.9735 34.6739 46.0052 34.6739 46.0685 34.6739C46.1001 34.6739 46.1001 34.6739 46.1001 34.6739C46.1318 34.6739 46.1635 34.6739 46.1951 34.6739C46.2268 34.6739 46.2268 34.6739 46.2585 34.6739C46.2901 34.6739 46.3218 34.6739 46.3534 34.6739C46.3851 34.6739 46.3851 34.6739 46.4168 34.6739C46.4484 34.6739 46.4801 34.6739 46.5117 34.6739C46.5434 34.6739 46.5434 34.6739 46.5751 34.6739C46.6067 34.6739 46.6701 34.6739 46.7017 34.6423H46.7334C46.7651 34.6423 46.8284 34.6423 46.86 34.6108C46.8917 34.6108 46.8917 34.6108 46.9234 34.6108C46.955 34.6108 46.9867 34.6108 47.0183 34.5792C47.05 34.5792 47.05 34.5792 47.0817 34.5792C47.1133 34.5792 47.145 34.5792 47.145 34.5476C47.1767 34.5476 47.1767 34.5476 47.2083 34.5476C47.24 34.5476 47.2716 34.5476 47.2716 34.516C47.3033 34.516 47.3033 34.516 47.335 34.4844C47.3666 34.4844 47.3983 34.4844 47.43 34.4529C47.4616 34.4529 47.4933 34.4213 47.5566 34.4213C47.5883 34.4213 47.5883 34.4213 47.6199 34.3897C47.6516 34.3897 47.6833 34.3581 47.6833 34.3581C47.7149 34.3581 47.7149 34.3581 47.7466 34.3265C47.7782 34.3265 47.8099 34.295 47.8099 34.295C47.8416 34.295 47.8416 34.295 47.8732 34.2634C47.9049 34.2634 47.9366 34.2318 47.9682 34.2318C47.9999 34.2318 47.9999 34.2318 47.9999 34.2002C48.0315 34.2002 48.0632 34.1686 48.0949 34.1686C48.1582 34.1371 48.2532 34.1055 48.3165 34.0739C48.3482 34.0739 48.3798 34.0423 48.4115 34.0423H48.4431C48.4748 34.0423 48.5065 34.0108 48.5381 34.0108H48.5698C48.6015 33.9792 48.6331 33.9792 48.6648 33.9476C48.6648 33.9476 48.6648 33.9476 48.6964 33.9476C48.8548 33.8844 48.9814 33.7897 49.1397 33.7265C49.1714 33.695 49.203 33.695 49.2347 33.6634C49.4247 33.5686 49.583 33.4423 49.7413 33.316V33.5686C49.7413 34.1686 50.3112 34.6423 50.9761 34.6423C51.6727 34.6423 52.211 34.1686 52.211 33.5686V28.3897C52.211 28.3581 52.211 28.3581 52.211 28.3265C52.211 28.295 52.211 28.2634 52.211 28.2002C52.3376 24.7581 49.488 21.916 45.9735 21.916ZM45.9735 32.116C43.8205 32.116 42.1107 30.3792 42.1107 28.2634C42.1107 26.1476 43.8521 24.4108 45.9735 24.4108C48.0949 24.4108 49.8363 26.1476 49.8363 28.2634C49.8363 30.3792 48.1265 32.116 45.9735 32.116Z" fill="#F2C901"/>
<path d="M37.1395 32.0212H35.4614C33.9733 32.0212 32.7701 30.8212 32.7701 29.337V23.6844C32.7701 22.9581 32.2002 22.3896 31.472 22.3896C30.7437 22.3896 30.1738 22.9581 30.1738 23.6844V29.337C30.1738 32.2423 32.5485 34.6107 35.4614 34.6107H37.1395C37.8678 34.6107 38.4377 34.0423 38.4377 33.316C38.4377 32.5896 37.8678 32.0212 37.1395 32.0212Z" fill="#F2C901"/>
<path d="M47.0823 67.737C50.0269 67.737 52.4015 65.3686 52.4015 62.4317C52.4015 59.4949 50.0269 57.1265 47.0823 57.1265C44.1377 57.1265 41.763 59.4949 41.763 62.4317C41.7313 65.3686 44.1377 67.737 47.0823 67.737Z" fill="#666666"/>
<path d="M35.4296 67.737C38.3742 67.737 40.7489 65.3686 40.7489 62.4317C40.7489 59.4949 38.3742 57.1265 35.4296 57.1265C32.485 57.1265 30.1104 59.4949 30.1104 62.4317C30.1104 65.3686 32.5167 67.737 35.4296 67.737Z" fill="#666666"/>
<path d="M23.5566 67.737C26.5012 67.737 28.8758 65.3686 28.8758 62.4317C28.8758 59.4949 26.5012 57.1265 23.5566 57.1265C20.612 57.1265 18.2373 59.4949 18.2373 62.4317C18.2373 65.3686 20.612 67.737 23.5566 67.737Z" fill="#666666"/>
<path d="M208.021 15.8844C207.61 15.6318 207.451 15.0949 207.736 14.6528L210.048 10.8633C210.301 10.4528 210.839 10.2949 211.282 10.5791C211.726 10.8633 211.852 11.3686 211.567 11.8107L209.256 15.6002C208.971 16.0107 208.433 16.137 208.021 15.8844Z" fill="#F2C901"/>
<path d="M201.688 15.7263C201.308 16.0421 200.739 15.9473 200.422 15.5684L197.731 12.0631C197.414 11.6842 197.509 11.1158 197.889 10.8C198.269 10.4842 198.839 10.5789 199.155 10.9579L201.847 14.4631C202.163 14.8736 202.1 15.4421 201.688 15.7263Z" fill="#F2C901"/>
<path d="M210.681 17.7791C210.491 17.337 210.712 16.8001 211.156 16.6107L212.802 16.0422C213.245 15.8528 213.783 16.0738 213.973 16.5159C214.163 16.958 213.942 17.4949 213.499 17.6844L211.852 18.2528C211.377 18.4422 210.871 18.2528 210.681 17.7791Z" fill="#F2C901"/>
<path d="M198.934 17.8105C199.124 17.3684 198.902 16.8316 198.459 16.6421L196.717 16.0105C196.274 15.821 195.736 16.0421 195.546 16.4842C195.356 16.9263 195.578 17.4631 196.021 17.6526L197.762 18.2842C198.205 18.5052 198.744 18.2842 198.934 17.8105Z" fill="#F2C901"/>
<path d="M204.981 14.3998C205.488 14.3998 205.868 13.9893 205.899 13.4525V11.5893C205.899 11.0525 205.52 10.6419 205.013 10.6104C204.506 10.6104 204.126 11.0209 204.095 11.5577V13.4209C204.095 13.9577 204.475 14.3998 204.981 14.3998Z" fill="#F2C901"/>
<path d="M196.18 26.8423L195.42 28.0107C195.515 27.537 195.768 27.1265 196.18 26.8423Z" fill="#00A48A"/>
<path d="M158.913 5.62109H121.773C116.644 5.62109 112.464 9.78952 112.464 14.9053V22.0106C112.464 27.0632 116.581 31.1369 121.615 31.1369H145.9C148.718 31.1369 150.966 33.4106 150.966 36.1895V36.979C150.966 39.379 149.034 41.3053 146.628 41.3053H111.103C106.702 41.3053 103.156 37.7685 103.156 33.379V11.3369C103.156 8.17899 100.591 5.62109 97.4249 5.62109H96.855C93.4038 5.62109 90.5858 8.43162 90.5858 11.8737V37.6106C90.5858 39.6632 88.9077 41.3369 86.8497 41.3369C84.855 41.3369 83.2085 39.7264 83.2085 37.7053V33.8527C83.2085 30.3474 80.3589 27.5053 76.8444 27.5053H76.7178C73.3616 27.5053 70.6386 30.2211 70.6386 33.5685V35.0211C70.6386 38.4948 67.8207 41.3369 64.3062 41.3369H18.5225C16.4961 41.3369 14.818 39.6948 14.818 37.6421V36.5053C14.818 31.4527 10.7019 27.3474 5.63597 27.3474H3.73624C2.72305 27.3474 1.86816 28.1685 1.86816 29.2106V39.4422C1.86816 47.4632 8.39059 53.9685 16.4328 53.9685H68.6756C73.8682 53.9685 76.9394 49.7053 76.9394 46.8632H77.0027C77.0027 49.7369 80.5806 53.9685 85.3299 53.9685H87.9262C92.8972 53.9685 96.3484 49.8632 96.3484 46.9264C96.3484 49.8632 100.021 53.9685 104.581 53.9685H148.211C156.887 53.9685 163.916 46.9579 163.916 38.3053V34.2632C163.916 26.0211 157.203 19.3264 148.939 19.3264H123.895V18.4106C123.895 17.4632 124.654 16.7053 125.604 16.7053H151.346C156.285 16.7053 160.275 12.6948 160.211 7.76846V6.88425C160.211 6.18951 159.641 5.62109 158.913 5.62109Z" fill="#666666"/>
<defs>
<linearGradient id="paint0_linear_3944_5981" x1="223.59" y1="68.6096" x2="185.978" y2="3.29134" gradientUnits="userSpaceOnUse">
<stop stop-color="#00A48A"/>
<stop offset="1" stop-color="#007B68"/>
</linearGradient>
<linearGradient id="paint1_linear_3944_5981" x1="192.488" y1="44.0305" x2="187.257" y2="34.946" gradientUnits="userSpaceOnUse">
<stop stop-color="#00A48A"/>
<stop offset="1" stop-color="#007B68"/>
</linearGradient>
</defs>
</svg>
