<svg width="23" height="24" viewBox="0 0 23 24" fill="none" xmlns="http://www.w3.org/2000/svg">
<path d="M12.0948 5.30233C12.0948 4.83995 11.72 4.46512 11.2576 4.46512C10.7952 4.46512 10.4204 4.83995 10.4204 5.30233V9.76744C10.4204 10.2298 10.7952 10.6047 11.2576 10.6047C11.72 10.6047 12.0948 10.2298 12.0948 9.76744V5.30233Z" fill="white"/>
<path fill-rule="evenodd" clip-rule="evenodd" d="M2.60651 8.65116C2.60651 3.87326 6.47977 0 11.2577 0C16.0356 0 19.9088 3.87326 19.9088 8.65116V9.43714C19.9088 10.2151 20.1391 10.9756 20.5706 11.623L21.8528 13.5462C23.3409 15.7784 22.2049 18.8124 19.6167 19.5183C18.7732 19.7483 17.9225 19.9429 17.0669 20.1021L17.0648 20.1078C16.2064 22.3982 13.9121 24 11.2576 24C8.6031 24 6.3088 22.3982 5.45039 20.1078L5.44827 20.102C4.59274 19.9429 3.74215 19.7483 2.89867 19.5183C0.310478 18.8124 -0.825567 15.7784 0.66254 13.5462L1.9447 11.623C2.37624 10.9756 2.60651 10.2151 2.60651 9.43714V8.65116ZM7.4885 20.4133C9.99226 20.7125 12.5229 20.7125 15.0267 20.4134C14.2331 21.5537 12.8527 22.3256 11.2576 22.3256C9.66248 22.3256 8.28213 21.5537 7.4885 20.4133ZM11.2577 1.67442C7.40453 1.67442 4.28093 4.79801 4.28093 8.65116V9.43714C4.28093 10.5457 3.9528 11.6294 3.3379 12.5518L2.05574 14.475C1.20159 15.7562 1.85366 17.4977 3.33924 17.9029C8.52352 19.3168 13.9918 19.3168 19.1761 17.9029C20.6617 17.4977 21.3138 15.7562 20.4596 14.475L19.1774 12.5518C18.5625 11.6294 18.2344 10.5457 18.2344 9.43714V8.65116C18.2344 4.79801 15.1108 1.67442 11.2577 1.67442Z" fill="white"/>
</svg>
