<svg width="30" height="30" viewBox="0 0 30 30" fill="none" xmlns="http://www.w3.org/2000/svg">
<path fill-rule="evenodd" clip-rule="evenodd" d="M15 30C23.2843 30 30 23.2843 30 15C30 6.71573 23.2843 0 15 0C6.71573 0 0 6.71573 0 15C0 17.3995 0.563424 19.6675 1.56519 21.6787C1.83141 22.2132 1.92001 22.8241 1.76568 23.4009L0.872266 26.74C0.484431 28.1895 1.81052 29.5156 3.26002 29.1277L6.59908 28.2343C7.1759 28.08 7.78681 28.1686 8.32129 28.4348C10.3325 29.4366 12.6005 30 15 30ZM9 16.875C8.37868 16.875 7.875 17.3787 7.875 18C7.875 18.6213 8.37868 19.125 9 19.125H17.25C17.8713 19.125 18.375 18.6213 18.375 18C18.375 17.3787 17.8713 16.875 17.25 16.875H9ZM7.875 12.75C7.875 12.1287 8.37868 11.625 9 11.625H21C21.6213 11.625 22.125 12.1287 22.125 12.75C22.125 13.3713 21.6213 13.875 21 13.875H9C8.37868 13.875 7.875 13.3713 7.875 12.75Z" fill="#4D4D4D"/>
</svg>
