<svg width="84" height="85" viewBox="0 0 84 85" fill="none" xmlns="http://www.w3.org/2000/svg">
<path fill-rule="evenodd" clip-rule="evenodd" d="M5 42.5C5 21.7596 21.595 5 42 5C62.405 5 79 21.7596 79 42.5C79 63.2404 62.405 80 42 80C21.595 80 5 63.2404 5 42.5ZM42 0C18.7745 0 0 19.0576 0 42.5C0 65.9424 18.7745 85 42 85C65.2255 85 84 65.9424 84 42.5C84 19.0576 65.2255 0 42 0ZM57.2678 34.2678C58.2441 33.2915 58.2441 31.7085 57.2678 30.7322C56.2915 29.7559 54.7085 29.7559 53.7322 30.7322L35.5 48.9645L29.2678 42.7322C28.2915 41.7559 26.7085 41.7559 25.7322 42.7322C24.7559 43.7085 24.7559 45.2915 25.7322 46.2678L33.7322 54.2678C34.7085 55.2441 36.2915 55.2441 37.2678 54.2678L57.2678 34.2678Z" fill="#00A48A"/>
</svg>
