<svg width="84" height="85" viewBox="0 0 84 85" fill="none" xmlns="http://www.w3.org/2000/svg">
<path fill-rule="evenodd" clip-rule="evenodd" d="M5 42.5C5 21.7596 21.595 5 42 5C62.405 5 79 21.7596 79 42.5C79 63.2404 62.405 80 42 80C21.595 80 5 63.2404 5 42.5ZM42 0C18.7745 0 0 19.0576 0 42.5C0 65.9424 18.7745 85 42 85C65.2255 85 84 65.9424 84 42.5C84 19.0576 65.2255 0 42 0ZM34.3125 30.7781C33.3615 29.7771 31.7791 29.7365 30.7781 30.6875C29.7771 31.6385 29.7365 33.2209 30.6875 34.2219L38.5518 42.5L30.6876 50.7781C29.7366 51.7791 29.7772 53.3615 30.7782 54.3125C31.7792 55.2635 33.3616 55.2229 34.3126 54.2219L42 46.1298L49.6874 54.2218C50.6384 55.2228 52.2208 55.2634 53.2218 54.3124C54.2228 53.3615 54.2634 51.7791 53.3124 50.7781L45.4483 42.5L53.3125 34.222C54.2635 33.2209 54.2229 31.6386 53.2219 30.6876C52.2209 29.7366 50.6385 29.7772 49.6875 30.7782L42 38.8703L34.3125 30.7781Z" fill="#FA1744"/>
</svg>
