<svg width="27" height="30" viewBox="0 0 27 30" fill="none" xmlns="http://www.w3.org/2000/svg">
<path fill-rule="evenodd" clip-rule="evenodd" d="M1.75736 1.75736C0 3.51472 0 6.34315 0 12V18C0 23.6569 0 26.4853 1.75736 28.2426C3.51472 30 6.34315 30 12 30H15C20.6569 30 23.4853 30 25.2426 28.2426C27 26.4853 27 23.6569 27 18V12C27 6.34315 27 3.51472 25.2426 1.75736C23.4853 0 20.6569 0 15 0H12C6.34315 0 3.51472 0 1.75736 1.75736ZM14.625 6C14.625 5.37868 14.1213 4.875 13.5 4.875C12.8787 4.875 12.375 5.37868 12.375 6V7.875H10.5C9.87863 7.875 9.37495 8.37868 9.37495 9C9.37495 9.62132 9.87863 10.125 10.5 10.125H12.375L12.375 12C12.375 12.6213 12.8787 13.125 13.5 13.125C14.1213 13.125 14.625 12.6213 14.625 12L14.625 10.125L16.5 10.125C17.1213 10.125 17.625 9.62132 17.625 9C17.625 8.37868 17.1213 7.875 16.5 7.875H14.625V6ZM7.5 16.875C6.87868 16.875 6.375 17.3787 6.375 18C6.375 18.6213 6.87868 19.125 7.5 19.125H19.5C20.1213 19.125 20.625 18.6213 20.625 18C20.625 17.3787 20.1213 16.875 19.5 16.875H7.5ZM9 22.875C8.37868 22.875 7.875 23.3787 7.875 24C7.875 24.6213 8.37868 25.125 9 25.125H18C18.6213 25.125 19.125 24.6213 19.125 24C19.125 23.3787 18.6213 22.875 18 22.875H9Z" fill="#505050"/>
</svg>
