<svg width="30" height="30" viewBox="0 0 30 30" fill="none" xmlns="http://www.w3.org/2000/svg">
<path d="M2.5 8.125C2.5 5.47335 2.5 4.14752 3.32376 3.32376C4.14752 2.5 5.47335 2.5 8.125 2.5C10.7767 2.5 12.1025 2.5 12.9262 3.32376C13.75 4.14752 13.75 5.47335 13.75 8.125C13.75 10.7767 13.75 12.1025 12.9262 12.9262C12.1025 13.75 10.7767 13.75 8.125 13.75C5.47335 13.75 4.14752 13.75 3.32376 12.9262C2.5 12.1025 2.5 10.7767 2.5 8.125Z" fill="#505050"/>
<path d="M16.25 21.875C16.25 19.2233 16.25 17.8975 17.0738 17.0738C17.8975 16.25 19.2233 16.25 21.875 16.25C24.5267 16.25 25.8525 16.25 26.6762 17.0738C27.5 17.8975 27.5 19.2233 27.5 21.875C27.5 24.5267 27.5 25.8525 26.6762 26.6762C25.8525 27.5 24.5267 27.5 21.875 27.5C19.2233 27.5 17.8975 27.5 17.0738 26.6762C16.25 25.8525 16.25 24.5267 16.25 21.875Z" fill="#505050"/>
<path d="M2.5 21.875C2.5 19.2233 2.5 17.8975 3.32376 17.0738C4.14752 16.25 5.47335 16.25 8.125 16.25C10.7767 16.25 12.1025 16.25 12.9262 17.0738C13.75 17.8975 13.75 19.2233 13.75 21.875C13.75 24.5267 13.75 25.8525 12.9262 26.6762C12.1025 27.5 10.7767 27.5 8.125 27.5C5.47335 27.5 4.14752 27.5 3.32376 26.6762C2.5 25.8525 2.5 24.5267 2.5 21.875Z" fill="#505050"/>
<path d="M16.25 8.125C16.25 5.47335 16.25 4.14752 17.0738 3.32376C17.8975 2.5 19.2233 2.5 21.875 2.5C24.5267 2.5 25.8525 2.5 26.6762 3.32376C27.5 4.14752 27.5 5.47335 27.5 8.125C27.5 10.7767 27.5 12.1025 26.6762 12.9262C25.8525 13.75 24.5267 13.75 21.875 13.75C19.2233 13.75 17.8975 13.75 17.0738 12.9262C16.25 12.1025 16.25 10.7767 16.25 8.125Z" fill="#505050"/>
</svg>
