<svg width="50" height="50" viewBox="0 0 50 50" fill="none" xmlns="http://www.w3.org/2000/svg">
<rect width="50" height="50" rx="25" fill="#FFECEF"/>
<path fill-rule="evenodd" clip-rule="evenodd" d="M23.5594 15H26.9408C27.1572 14.9999 27.3457 14.9998 27.5237 15.0282C28.227 15.1405 28.8356 15.5791 29.1646 16.2108C29.2478 16.3707 29.3073 16.5496 29.3756 16.7549L29.4873 17.0898C29.5062 17.1465 29.5116 17.1626 29.5161 17.1752C29.6913 17.6593 30.1453 17.9866 30.6599 17.9996C30.6735 18 30.69 18 30.7501 18H33.7501C34.1643 18 34.5001 18.3358 34.5001 18.75C34.5001 19.1643 34.1643 19.5 33.7501 19.5H16.75C16.3358 19.5 16 19.1643 16 18.75C16 18.3358 16.3358 18 16.75 18H19.7501C19.8101 18 19.8267 18 19.8402 17.9996C20.3549 17.9866 20.8089 17.6594 20.984 17.1752C20.9886 17.1625 20.9939 17.1468 21.0129 17.0898L21.1245 16.755C21.1928 16.5496 21.2523 16.3707 21.3356 16.2108C21.6645 15.5791 22.2731 15.1405 22.9764 15.0282C23.1544 14.9998 23.343 14.9999 23.5594 15ZM22.2582 18C22.3097 17.899 22.3553 17.794 22.3946 17.6855C22.4065 17.6525 22.4182 17.6174 22.4332 17.5723L22.533 17.2729C22.6242 16.9994 22.6452 16.9436 22.666 16.9036C22.7757 16.6931 22.9785 16.5469 23.213 16.5094C23.2575 16.5023 23.317 16.5 23.6053 16.5H26.8948C27.1831 16.5 27.2427 16.5023 27.2872 16.5094C27.5216 16.5469 27.7245 16.6931 27.8342 16.9036C27.855 16.9436 27.876 16.9994 27.9671 17.2729L28.0669 17.5722L28.1056 17.6855C28.1449 17.7941 28.1905 17.899 28.242 18H22.2582Z" fill="#FF2055"/>
<path d="M19.1651 21.2001C19.1375 20.7869 18.7802 20.4741 18.3669 20.5017C17.9536 20.5293 17.6409 20.8866 17.6684 21.2999L18.1319 28.2517C18.2174 29.5344 18.2864 30.5705 18.4484 31.3836C18.6168 32.2289 18.9032 32.935 19.4948 33.4885C20.0864 34.0419 20.8099 34.2808 21.6646 34.3925C22.4866 34.5001 23.525 34.5001 24.8106 34.5H25.6895C26.9751 34.5001 28.0135 34.5001 28.8356 34.3925C29.6902 34.2808 30.4138 34.0419 31.0054 33.4885C31.597 32.935 31.8834 32.2289 32.0518 31.3836C32.2138 30.5706 32.2828 29.5344 32.3683 28.2517L32.8318 21.2999C32.8593 20.8866 32.5466 20.5293 32.1333 20.5017C31.72 20.4741 31.3626 20.7869 31.3351 21.2001L30.8751 28.0993C30.7853 29.4471 30.7213 30.3849 30.5807 31.0906C30.4443 31.775 30.254 32.1373 29.9806 32.3931C29.7072 32.6489 29.333 32.8147 28.641 32.9052C27.9276 32.9985 26.9876 33 25.6368 33H24.8634C23.5126 33 22.5726 32.9985 21.8592 32.9052C21.1672 32.8147 20.793 32.6489 20.5196 32.3931C20.2462 32.1373 20.0558 31.775 19.9195 31.0906C19.7789 30.3849 19.7149 29.4471 19.625 28.0993L19.1651 21.2001Z" fill="#FF2055"/>
<path d="M22.6755 23.0038C23.0876 22.9625 23.4552 23.2633 23.4964 23.6754L23.9964 28.6754C24.0376 29.0876 23.7369 29.4551 23.3247 29.4963C22.9126 29.5375 22.545 29.2368 22.5038 28.8247L22.0038 23.8247C21.9626 23.4125 22.2633 23.045 22.6755 23.0038Z" fill="#FF2055"/>
<path d="M27.8247 23.0038C28.2369 23.045 28.5376 23.4125 28.4964 23.8247L27.9964 28.8247C27.9552 29.2368 27.5876 29.5375 27.1755 29.4963C26.7633 29.4551 26.4626 29.0876 26.5038 28.6754L27.0038 23.6754C27.045 23.2633 27.4126 22.9625 27.8247 23.0038Z" fill="#FF2055"/>
</svg>
