<svg width="23" height="24" viewBox="0 0 23 24" fill="none" xmlns="http://www.w3.org/2000/svg">
<path d="M15.5154 2H7.48454C3.99621 2 1.91663 4.17 1.91663 7.81V16.18C1.91663 19.83 3.99621 22 7.48454 22H15.5058C18.9941 22 21.0737 19.83 21.0737 16.19V7.81C21.0833 4.17 19.0037 2 15.5154 2ZM8.11704 10.98C8.39496 10.69 8.85496 10.69 9.13288 10.98L10.7812 12.7V6.51C10.7812 6.1 11.107 5.76 11.5 5.76C11.8929 5.76 12.2187 6.1 12.2187 6.51V12.7L13.867 10.98C14.145 10.69 14.605 10.69 14.8829 10.98C15.1608 11.27 15.1608 11.75 14.8829 12.04L12.0079 15.04C11.9408 15.11 11.8641 15.16 11.7779 15.2C11.6916 15.24 11.5958 15.26 11.5 15.26C11.4041 15.26 11.3179 15.24 11.222 15.2C11.1358 15.16 11.0591 15.11 10.992 15.04L8.11704 12.04C7.83913 11.75 7.83913 11.28 8.11704 10.98ZM17.48 17.22C15.5537 17.89 13.5316 18.23 11.5 18.23C9.46829 18.23 7.44621 17.89 5.51996 17.22C5.14621 17.09 4.94496 16.66 5.06954 16.27C5.19413 15.88 5.59663 15.66 5.97996 15.8C9.54496 17.04 13.4645 17.04 17.0295 15.8C17.4033 15.67 17.8154 15.88 17.94 16.27C18.055 16.67 17.8537 17.09 17.48 17.22Z" fill="#00A48A"/>
</svg>
