<svg width="233" height="232" viewBox="0 0 233 232" fill="none" xmlns="http://www.w3.org/2000/svg">
<path d="M174.749 77.3333C174.749 88.0108 166.056 96.6666 155.333 96.6666C144.609 96.6666 135.916 88.0108 135.916 77.3333C135.916 66.6558 144.609 57.9999 155.333 57.9999C166.056 57.9999 174.749 66.6558 174.749 77.3333Z" fill="#E0E0E0"/>
<path fill-rule="evenodd" clip-rule="evenodd" d="M115.942 12.0833H117.056C139.467 12.0831 157.03 12.083 170.733 13.9175C184.759 15.7951 195.827 19.7134 204.514 28.3632C213.201 37.0131 217.136 48.0333 219.022 61.9991C220.864 75.6435 220.864 93.1308 220.864 115.445V116.299C220.864 134.75 220.864 149.855 219.858 162.154C218.846 174.513 216.774 184.84 212.135 193.418C210.089 197.201 207.575 200.589 204.514 203.637C195.827 212.286 184.759 216.205 170.733 218.082C157.03 219.917 139.467 219.917 117.056 219.917H115.942C93.5317 219.917 75.9689 219.917 62.2657 218.082C48.2398 216.205 37.172 212.286 28.4849 203.637C20.7835 195.968 16.8064 186.424 14.6915 174.584C12.6139 162.953 12.2338 148.483 12.1549 130.514C12.1348 125.944 12.1348 121.11 12.1348 116.01V115.445C12.1346 93.1309 12.1346 75.6434 13.9769 61.9991C15.8626 48.0333 19.7978 37.0131 28.4849 28.3632C37.172 19.7134 48.2398 15.7951 62.2657 13.9175C75.9689 12.083 93.5317 12.0831 115.942 12.0833ZM64.2062 28.2882C51.795 29.9496 44.3126 33.1096 38.7822 38.6163C33.2518 44.123 30.0782 51.5733 28.4095 63.9312C26.7127 76.4976 26.6973 93.0104 26.6973 116C26.6973 118.808 26.6973 121.524 26.7006 124.154L36.4199 115.686C45.2669 107.978 58.6005 108.42 66.9128 116.697L108.559 158.164C115.231 164.807 125.733 165.713 133.453 160.311L136.348 158.285C147.457 150.512 162.486 151.413 172.578 160.457L200.057 185.081C202.823 179.297 204.466 171.697 205.343 160.976C206.296 149.333 206.301 134.81 206.301 116C206.301 93.0104 206.286 76.4976 204.589 63.9312C202.921 51.5733 199.747 44.123 194.217 38.6163C188.686 33.1096 181.204 29.9496 168.793 28.2882C156.172 26.5987 139.588 26.5833 116.499 26.5833C93.4108 26.5833 76.8268 26.5987 64.2062 28.2882Z" fill="#E0E0E0"/>
</svg>
