<svg width="22" height="22" viewBox="0 0 22 22" fill="none" xmlns="http://www.w3.org/2000/svg">
<path d="M11.0007 1.83301C8.59898 1.83301 6.64648 3.78551 6.64648 6.18717C6.64648 8.54301 8.48898 10.4497 10.8907 10.5322C10.964 10.523 11.0373 10.523 11.0923 10.5322C11.1107 10.5322 11.1198 10.5322 11.1382 10.5322C11.1473 10.5322 11.1473 10.5322 11.1565 10.5322C13.5032 10.4497 15.3457 8.54301 15.3548 6.18717C15.3548 3.78551 13.4023 1.83301 11.0007 1.83301Z" fill="#5E7BEC"/>
<path d="M15.6569 12.9711C13.0994 11.2661 8.92854 11.2661 6.35271 12.9711C5.18854 13.7503 4.54688 14.8045 4.54688 15.932C4.54688 17.0595 5.18854 18.1045 6.34354 18.8745C7.62687 19.7361 9.31354 20.167 11.0002 20.167C12.6869 20.167 14.3735 19.7361 15.6569 18.8745C16.8119 18.0953 17.4535 17.0503 17.4535 15.9136C17.4444 14.7861 16.8119 13.7411 15.6569 12.9711Z" fill="#5E7BEC"/>
</svg>
