<svg width="21" height="21" viewBox="0 0 21 21" fill="none" xmlns="http://www.w3.org/2000/svg">
<path d="M10.5 1.75C8.2075 1.75 6.34375 3.61375 6.34375 5.90625C6.34375 8.155 8.1025 9.975 10.395 10.0537C10.465 10.045 10.535 10.045 10.5875 10.0537C10.605 10.0537 10.6137 10.0537 10.6312 10.0537C10.64 10.0537 10.64 10.0537 10.6488 10.0537C12.8888 9.975 14.6475 8.155 14.6562 5.90625C14.6562 3.61375 12.7925 1.75 10.5 1.75Z" fill="#00A48A"/>
<path d="M14.9448 12.3813C12.5036 10.7538 8.52234 10.7538 6.06359 12.3813C4.95234 13.125 4.33984 14.1313 4.33984 15.2075C4.33984 16.2838 4.95234 17.2813 6.05484 18.0163C7.27984 18.8388 8.88984 19.25 10.4998 19.25C12.1098 19.25 13.7198 18.8388 14.9448 18.0163C16.0473 17.2725 16.6598 16.275 16.6598 15.19C16.6511 14.1138 16.0473 13.1163 14.9448 12.3813Z" fill="#00A48A"/>
</svg>
