<svg width="34" height="40" viewBox="0 0 34 40" fill="none" xmlns="http://www.w3.org/2000/svg">
<g filter="url(#filter0_d_2837_12865)">
<path d="M17.0007 5.83301C14.599 5.83301 12.6465 7.78551 12.6465 10.1872C12.6465 12.543 14.489 14.4497 16.8907 14.5322C16.964 14.523 17.0373 14.523 17.0923 14.5322C17.1107 14.5322 17.1198 14.5322 17.1382 14.5322C17.1473 14.5322 17.1473 14.5322 17.1565 14.5322C19.5032 14.4497 21.3457 12.543 21.3548 10.1872C21.3548 7.78551 19.4023 5.83301 17.0007 5.83301Z" fill="#5E7BEC"/>
<path d="M21.6569 16.9711C19.0994 15.2661 14.9285 15.2661 12.3527 16.9711C11.1885 17.7503 10.5469 18.8045 10.5469 19.932C10.5469 21.0595 11.1885 22.1045 12.3435 22.8745C13.6269 23.7361 15.3135 24.167 17.0002 24.167C18.6869 24.167 20.3735 23.7361 21.6569 22.8745C22.8119 22.0953 23.4535 21.0503 23.4535 19.9136C23.4444 18.7861 22.8119 17.7411 21.6569 16.9711Z" fill="#5E7BEC"/>
</g>
<defs>
<filter id="filter0_d_2837_12865" x="-4" y="-1" width="42" height="42" filterUnits="userSpaceOnUse" color-interpolation-filters="sRGB">
<feFlood flood-opacity="0" result="BackgroundImageFix"/>
<feColorMatrix in="SourceAlpha" type="matrix" values="0 0 0 0 0 0 0 0 0 0 0 0 0 0 0 0 0 0 127 0" result="hardAlpha"/>
<feOffset dy="5"/>
<feGaussianBlur stdDeviation="5"/>
<feComposite in2="hardAlpha" operator="out"/>
<feColorMatrix type="matrix" values="0 0 0 0 0.27451 0 0 0 0 0.415686 0 0 0 0 1 0 0 0 0.3 0"/>
<feBlend mode="normal" in2="BackgroundImageFix" result="effect1_dropShadow_2837_12865"/>
<feBlend mode="normal" in="SourceGraphic" in2="effect1_dropShadow_2837_12865" result="shape"/>
</filter>
</defs>
</svg>
