<svg width="17" height="17" viewBox="0 0 17 17" fill="none" xmlns="http://www.w3.org/2000/svg">
<path fill-rule="evenodd" clip-rule="evenodd" d="M6.7507 2.63734C5.07748 2.0796 3.90171 1.68971 3.03386 1.53533C2.1607 1.38 1.85206 1.51115 1.68185 1.68136C1.51164 1.85157 1.38049 2.16021 1.53582 3.03338C1.6902 3.90123 2.08009 5.077 2.63783 6.75021L3.89666 10.5267C4.3447 11.8708 4.66679 12.8352 4.95564 13.5144C5.26131 14.2331 5.45777 14.4424 5.55161 14.4969C5.94282 14.7244 6.42599 14.7244 6.8172 14.4969C6.91104 14.4424 7.1075 14.2331 7.41317 13.5144C7.70202 12.8352 8.02411 11.8708 8.47214 10.5267L8.49565 10.456C8.58207 10.196 8.6591 9.96416 8.76232 9.75592L4.84932 5.88605C4.56133 5.60124 4.55876 5.13689 4.84358 4.8489C5.12839 4.56091 5.59274 4.55833 5.88073 4.84315L9.81479 8.73384C10.0078 8.64429 10.2205 8.57359 10.4565 8.49516L10.5272 8.47166C11.8713 8.02362 12.8357 7.70153 13.5149 7.41268C14.2335 7.10701 14.4429 6.91055 14.4974 6.81671C14.7248 6.4255 14.7248 5.94233 14.4974 5.55112C14.4429 5.45728 14.2335 5.26082 13.5149 4.95515C12.8357 4.6663 11.8713 4.34421 10.5272 3.89617L6.7507 2.63734ZM0.64468 0.644192C1.3452 -0.0563318 2.2967 -0.0856193 3.29076 0.091215C4.27737 0.266724 5.55554 0.692803 7.15239 1.22511L11.0258 2.51624L11.0258 2.51625C12.3278 2.95023 13.3487 3.29055 14.0889 3.60538C14.7962 3.90618 15.4417 4.25699 15.7655 4.81392C16.2579 5.66089 16.2579 6.70694 15.7655 7.5539C15.4417 8.11083 14.7962 8.46165 14.0889 8.76245C13.3487 9.07728 12.3277 9.41761 11.0258 9.85159L10.991 9.86317C10.5247 10.0186 10.4243 10.0586 10.3471 10.1102C10.2536 10.1728 10.1733 10.2531 10.1107 10.3466C10.0591 10.4238 10.0191 10.5242 9.86366 10.9905L9.85206 11.0253C9.41809 12.3273 9.07776 13.3483 8.76294 14.0885C8.46214 14.7957 8.11132 15.4412 7.5544 15.765C6.70743 16.2574 5.66138 16.2574 4.81441 15.765C4.25748 15.4412 3.90667 14.7957 3.60586 14.0885C3.29103 13.3482 2.9507 12.3272 2.51672 11.0252L1.22558 7.15186L1.22557 7.15181C0.693278 5.55501 0.267209 4.27686 0.0917034 3.29027C-0.0851307 2.29621 -0.0558434 1.34472 0.64468 0.644192Z" fill="white"/>
</svg>
