<svg width="38" height="30" viewBox="0 0 38 30" fill="none" xmlns="http://www.w3.org/2000/svg">
<path fill-rule="evenodd" clip-rule="evenodd" d="M14.8235 0H22.2353C29.2232 0 32.7171 0 34.888 2.1967C37.0588 4.3934 37.0588 7.92893 37.0588 15C37.0588 22.0711 37.0588 25.6066 34.888 27.8033C32.7171 30 29.2232 30 22.2353 30H14.8235C7.83565 30 4.34171 30 2.17086 27.8033C0 25.6066 0 22.0711 0 15C0 7.92893 0 4.3934 2.17086 2.1967C4.34171 0 7.83565 0 14.8235 0ZM20.8456 9.375C20.8456 8.59835 21.4678 7.96875 22.2353 7.96875H31.5C32.2675 7.96875 32.8897 8.59835 32.8897 9.375C32.8897 10.1517 32.2675 10.7812 31.5 10.7812H22.2353C21.4678 10.7812 20.8456 10.1517 20.8456 9.375ZM22.6985 15C22.6985 14.2233 23.3207 13.5938 24.0882 13.5938H31.5C32.2675 13.5938 32.8897 14.2233 32.8897 15C32.8897 15.7767 32.2675 16.4062 31.5 16.4062H24.0882C23.3207 16.4062 22.6985 15.7767 22.6985 15ZM24.5515 20.625C24.5515 19.8483 25.1737 19.2188 25.9412 19.2188H31.5C32.2675 19.2188 32.8897 19.8483 32.8897 20.625C32.8897 21.4017 32.2675 22.0312 31.5 22.0312H25.9412C25.1737 22.0312 24.5515 21.4017 24.5515 20.625ZM16.6765 9.375C16.6765 11.4461 15.0173 13.125 12.9706 13.125C10.9239 13.125 9.26471 11.4461 9.26471 9.375C9.26471 7.30393 10.9239 5.625 12.9706 5.625C15.0173 5.625 16.6765 7.30393 16.6765 9.375ZM12.9706 24.375C20.3824 24.375 20.3824 22.6961 20.3824 20.625C20.3824 18.5539 17.064 16.875 12.9706 16.875C8.87718 16.875 5.55882 18.5539 5.55882 20.625C5.55882 22.6961 5.55882 24.375 12.9706 24.375Z" fill="#505050"/>
</svg>
