<svg width="35" height="35" viewBox="0 0 35 35" fill="none" xmlns="http://www.w3.org/2000/svg">
<path fill-rule="evenodd" clip-rule="evenodd" d="M3 14.6C3 9.13171 3 6.39756 4.69878 4.69878C6.39756 3 9.13171 3 14.6 3H17.5C22.9683 3 25.7024 3 27.4012 4.69878C28.2215 5.51905 28.6457 6.5807 28.865 8.075C27.5055 8.07472 26.1458 8.59325 25.1084 9.63059L24.924 9.81506L23.3118 11.4272L17.5024 17.2365L17.5024 17.2366C17.111 17.6277 16.7904 17.9481 16.5082 18.3099C16.1775 18.7338 15.8941 19.1925 15.6628 19.6778C15.4654 20.092 15.3222 20.5221 15.1474 21.0471L15.1156 21.1426L14.4267 23.2093L14.0301 24.399C13.6683 25.4845 13.9508 26.6812 14.7598 27.4902C15.5689 28.2993 16.7656 28.5818 17.851 28.22L21.203 27.1027L21.203 27.1027C21.728 26.9279 22.158 26.7847 22.5723 26.5873C23.0576 26.356 23.5162 26.0725 23.9401 25.7419C24.3019 25.4597 24.6223 25.1391 25.0135 24.7477L29.1 20.6611C29.0996 25.9558 29.0727 28.6297 27.4012 30.3012C25.7024 32 22.9683 32 17.5 32H14.6C9.13171 32 6.39756 32 4.69878 30.3012C3 28.6024 3 25.8683 3 20.4V14.6ZM10.25 12.0625C9.64939 12.0625 9.1625 12.5494 9.1625 13.15C9.1625 13.7506 9.64939 14.2375 10.25 14.2375H19.675C20.2756 14.2375 20.7625 13.7506 20.7625 13.15C20.7625 12.5494 20.2756 12.0625 19.675 12.0625H10.25ZM10.25 17.8625C9.64939 17.8625 9.1625 18.3494 9.1625 18.95C9.1625 19.5506 9.64939 20.0375 10.25 20.0375H13.875C14.4756 20.0375 14.9625 19.5506 14.9625 18.95C14.9625 18.3494 14.4756 17.8625 13.875 17.8625H10.25ZM10.25 23.6625C9.64939 23.6625 9.1625 24.1494 9.1625 24.75C9.1625 25.3506 9.64939 25.8375 10.25 25.8375H12.425C13.0256 25.8375 13.5125 25.3506 13.5125 24.75C13.5125 24.1494 13.0256 23.6625 12.425 23.6625H10.25ZM31.0815 11.1685C32.3062 12.3933 32.3062 14.3789 31.0815 15.6037L30.897 15.7881C30.719 15.9662 30.4703 16.0468 30.2225 16.0023C30.0666 15.9744 29.8387 15.9225 29.5668 15.8282C29.023 15.6395 28.309 15.2832 27.6379 14.6121C26.9668 13.941 26.6105 13.2271 26.4218 12.6832C26.3275 12.4113 26.2756 12.1834 26.2477 12.0275C26.2032 11.7797 26.2838 11.531 26.4619 11.353L26.6463 11.1685C27.8711 9.94382 29.8567 9.94382 31.0815 11.1685ZM23.5466 23.1385C23.0863 23.5988 22.8562 23.829 22.6024 24.0269C22.3031 24.2604 21.9792 24.4605 21.6365 24.6239C21.346 24.7623 21.0372 24.8652 20.4196 25.0711L19.6217 25.3371L18.3529 25.76L17.1632 26.1566C16.8593 26.2579 16.5242 26.1788 16.2977 25.9523C16.0712 25.7258 15.9921 25.3907 16.0934 25.0868L16.49 23.8971L16.9129 22.6283L17.1789 21.8304C17.3848 21.2128 17.4877 20.904 17.6261 20.6135C17.7895 20.2708 17.9896 19.9469 18.2231 19.6476C18.421 19.3939 18.6512 19.1637 19.1115 18.7034L24.8497 12.9652C24.9884 12.8265 25.2274 12.89 25.2917 13.0753C25.5267 13.7526 25.9679 14.6337 26.7921 15.4579C27.6163 16.2821 28.4974 16.7233 29.1747 16.9583C29.3601 17.0226 29.4235 17.2616 29.2848 17.4003L23.5466 23.1385Z" fill="#505050"/>
</svg>
