<svg width="24" height="24" viewBox="0 0 24 24" fill="none" xmlns="http://www.w3.org/2000/svg">
<path fill-rule="evenodd" clip-rule="evenodd" d="M22.0926 9.43269C22.0271 9.42852 21.9557 9.42855 21.8817 9.42858L21.8632 9.42858H18.9619C16.5703 9.42858 14.524 11.3258 14.524 13.8C14.524 16.2742 16.5703 18.1714 18.9619 18.1714H21.8632L21.8817 18.1714C21.9557 18.1715 22.0271 18.1715 22.0926 18.1673C23.064 18.1055 23.9231 17.3394 23.9953 16.2692C24.0001 16.1991 24 16.1234 24 16.0533L24 16.0343V11.5657L24 11.5467C24 11.4766 24.0001 11.401 23.9953 11.3308C23.9231 10.2607 23.064 9.49451 22.0926 9.43269ZM18.7046 14.9657C19.3203 14.9657 19.8194 14.4438 19.8194 13.8C19.8194 13.1562 19.3203 12.6343 18.7046 12.6343C18.0889 12.6343 17.5898 13.1562 17.5898 13.8C17.5898 14.4438 18.0889 14.9657 18.7046 14.9657Z" fill="#505050"/>
<path fill-rule="evenodd" clip-rule="evenodd" d="M21.881 19.92C22.0534 19.9155 22.1839 20.0765 22.1371 20.2438C21.9049 21.0743 21.5364 21.7822 20.9451 22.3782C20.0795 23.2506 18.9819 23.6377 17.6259 23.8215C16.3082 24 14.6246 24 12.499 24H10.0552C7.92963 24 6.24601 24 4.92836 23.8215C3.57231 23.6377 2.47473 23.2506 1.60915 22.3782C0.743573 21.5058 0.359437 20.3996 0.17712 19.0329C-3.24368e-05 17.7049 -1.78951e-05 16.0081 3.74088e-07 13.8658V13.7342C-1.8033e-05 11.5919 -3.27051e-05 9.89508 0.17712 8.56708C0.359437 7.20037 0.743572 6.09417 1.60915 5.22179C2.47473 4.34942 3.57231 3.96226 4.92836 3.77851C6.246 3.59997 7.92963 3.59998 10.0552 3.6L12.499 3.6C14.6246 3.59998 16.3082 3.59997 17.6259 3.77851C18.9819 3.96226 20.0795 4.34941 20.9451 5.22179C21.5364 5.8178 21.9049 6.52564 22.1371 7.35615C22.1839 7.52351 22.0534 7.68451 21.8809 7.68001L18.9618 7.68001C15.6808 7.68001 12.789 10.2923 12.789 13.8C12.789 17.3078 15.6808 19.92 18.9618 19.92L21.881 19.92ZM4.33735 8.26286C3.85826 8.26286 3.46988 8.65429 3.46988 9.13714C3.46988 9.62 3.85826 10.0114 4.33735 10.0114H8.96386C9.44295 10.0114 9.83133 9.62 9.83133 9.13714C9.83133 8.65429 9.44295 8.26286 8.96386 8.26286H4.33735Z" fill="#505050"/>
<path d="M6.93202 2.42926L9.28258 0.697511C10.5449 -0.232504 12.2551 -0.232504 13.5174 0.697512L15.8803 2.43837C14.8924 2.39995 13.7891 2.39997 12.5794 2.4H9.97479C8.86947 2.39998 7.85292 2.39995 6.93202 2.42926Z" fill="#505050"/>
</svg>
